<svg xmlns="http://www.w3.org/2000/svg" width="17.563" height="17.414" viewBox="0 0 17.563 17.414">
  <g id="Group_163674" data-name="Group 163674" transform="translate(1.091 0.5)">
    <path id="Path_1736" data-name="Path 1736" d="M92.437,58.5c-.057,0-.092.007-.127.007-.639,0-1.277,0-1.916,0a.209.209,0,0,1-.194-.107q-1.369-1.963-2.743-3.924-1.03-1.475-2.059-2.951-1.416-2.026-2.834-4.051-.945-1.351-1.887-2.7l-.406-.584c.057,0,.091-.009.125-.009.647,0,1.294,0,1.94,0a.169.169,0,0,1,.158.081q1.184,1.7,2.371,3.392,1.2,1.711,2.388,3.423,1.309,1.874,2.62,3.747l2.491,3.557c.023.032.041.067.073.12" transform="translate(-78.334 -43.117)" fill="none" stroke="#f1f1f1" stroke-width="1"/>
    <g id="Group_163671" data-name="Group 163671" transform="translate(0 0)">
      <path id="Path_1735" data-name="Path 1735" d="M16.048,16.412H15.8q-2.2,0-4.407,0a.189.189,0,0,1-.178-.089Q10.108,14.71,9,13.1q-1.032-1.5-2.067-3c-.009-.013-.02-.024-.041-.049l-.432.5-2.22,2.582L1.865,15.891c-.133.155-.265.311-.4.464a.157.157,0,0,1-.1.055c-.441,0-.882,0-1.366,0L6.268,9.124,0,0H.154Q2.4,0,4.65,0a.229.229,0,0,1,.213.116Q5.828,1.526,6.8,2.934l1.375,2,.753,1.095c.131-.151.254-.291.376-.433L13.67.519c.126-.146.248-.3.377-.437a.223.223,0,0,1,.138-.076c.426-.006.852,0,1.277,0a.349.349,0,0,1,.054.013l-.41.477Q14.029,1.748,12.951,3q-.93,1.08-1.862,2.159c-.494.574-.985,1.152-1.482,1.724-.066.076-.017.115.016.164q.728,1.062,1.458,2.122l1.731,2.519,2.448,3.559q.354.515.707,1.032c.024.036.046.073.082.13M14.1,15.386c-.032-.053-.051-.088-.074-.12l-2.491-3.557q-1.311-1.873-2.62-3.747Q7.724,6.25,6.531,4.538,5.346,2.842,4.16,1.146A.169.169,0,0,0,4,1.065c-.647,0-1.294,0-1.94,0-.034,0-.069,0-.125.009l.406.584q.943,1.352,1.887,2.7Q5.646,6.389,7.063,8.414q1.031,1.475,2.059,2.951,1.371,1.962,2.743,3.924a.209.209,0,0,0,.194.107c.639,0,1.277,0,1.916,0,.035,0,.07,0,.127-.007" transform="translate(0 0)" fill="none" stroke="#f1f1f1" stroke-width="1"/>
    </g>
  </g>
</svg>
