<svg xmlns="http://www.w3.org/2000/svg" width="10.126" height="18.365" viewBox="0 0 10.126 18.365">
  <path id="Path_1731" data-name="Path 1731" d="M337.9,252.661c0-.419,0-.759,0-1.1-.023-1.927-.065-3.854-.06-5.781,0-.583-.209-.792-.776-.751-.462.033-.928,0-1.393,0-.4,0-.6-.168-.6-.585.007-.673.008-1.347-.018-2.02-.016-.413.181-.521.547-.512.511.012,1.024-.028,1.532,0,.49.031.648-.159.651-.639a22.7,22.7,0,0,1,.127-2.843,3.428,3.428,0,0,1,3.284-3.113,23.254,23.254,0,0,1,2.983.132v2.74c-.485,0-.963-.007-1.441,0a1.383,1.383,0,0,0-1.52,1.364c-.06.621-.017,1.251-.024,1.877,0,.356.166.478.517.475.741-.006,1.483.025,2.225.043.019,0,.038.025.132.093-.1.861-.2,1.771-.333,2.676-.014.1-.186.2-.306.242a1.7,1.7,0,0,1-.481.048c-1.716.05-1.713.049-1.7,1.8.009,1.718-.011,3.437.032,5.155.014.574-.191.722-.72.7-.852-.032-1.706-.009-2.66-.009" transform="translate(-334.558 -234.807)" fill="none" stroke="#f1f1f1" stroke-width="1"/>
</svg>
