<svg xmlns="http://www.w3.org/2000/svg" width="16.445" height="16.49" viewBox="0 0 16.445 16.49">
  <g id="Group_163673" data-name="Group 163673" transform="translate(0.5 0.5)">
    <path id="Path_1725" data-name="Path 1725" d="M83.021,148.555c.883,0,1.737-.02,2.587.019.149.007.332.242.416.412a2.28,2.28,0,0,1,.1.654,8.209,8.209,0,0,1,1.125-.873,4.164,4.164,0,0,1,4-.009,3.088,3.088,0,0,1,1.573,2.774c.129,2.29.131,4.588.15,6.883,0,.139-.3.391-.471.4-.717.046-1.439,0-2.158.026-.49.019-.634-.168-.63-.649.015-1.764.009-3.529-.027-5.293a1.6,1.6,0,0,0-2.174-1.678,1.4,1.4,0,0,0-1.185,1.355c-.086,1.527-.107,3.058-.117,4.587-.011,1.676.007,1.676-1.689,1.68H83.021Z" transform="translate(-77.519 -143.368)" fill="none" stroke="#f1f1f1" stroke-width="1"/>
    <path id="Path_1726" data-name="Path 1726" d="M48.671,150.454c.023.3.055.53.056.758.019,2.92.017,5.84.063,8.759.01.623-.186.816-.789.772a17.7,17.7,0,0,0-1.876,0c-.405.014-.586-.124-.586-.555,0-3.082-.014-6.164,0-9.246,0-.164.207-.465.327-.47.92-.04,1.842-.022,2.807-.022" transform="translate(-45.258 -145.258)" fill="none" stroke="#f1f1f1" stroke-width="1"/>
    <path id="Path_1727" data-name="Path 1727" d="M45.413,116.974a1.724,1.724,0,0,1-1.847-1.858,1.892,1.892,0,0,1,1.807-1.9,1.979,1.979,0,0,1,1.879,1.933,1.781,1.781,0,0,1-1.839,1.825" transform="translate(-43.566 -113.215)" fill="none" stroke="#f1f1f1" stroke-width="1"/>
  </g>
</svg>
