<svg xmlns="http://www.w3.org/2000/svg" width="18.959" height="12.104" viewBox="0 0 18.959 12.104">
  <g id="Group_163672" data-name="Group 163672" transform="translate(0.5 0.5)">
    <path id="Path_1733" data-name="Path 1733" d="M43.42,71.446c-1.928,0-3.855.017-5.783,0a2.884,2.884,0,0,1-3.07-3.076c-.022-1.671-.026-3.343,0-5.014a2.864,2.864,0,0,1,2.959-2.974q5.946-.054,11.893,0a2.883,2.883,0,0,1,3.069,3.089q.035,2.506,0,5.014a2.852,2.852,0,0,1-2.959,2.959c-2.036.03-4.073.007-6.11.007m-2.186-8.2V68.6l4.629-2.687-4.629-2.666" transform="translate(-34.55 -60.35)" fill="none" stroke="#f1f1f1" stroke-width="1"/>
    <path id="Path_1734" data-name="Path 1734" d="M88.046,88.011,91,89.713l-2.955,1.716Z" transform="translate(-80.587 -84.154)" fill="none" stroke="#f1f1f1" stroke-width="1"/>
  </g>
</svg>
